<svg width="30" height="27" viewBox="0 0 30 27" fill="none" xmlns="http://www.w3.org/2000/svg">
<path d="M6.13636 27C5.07273 27 4.14545 26.3606 3.69545 25.437L0.136364 11.9954L0 11.3703C0 10.9934 0.143668 10.632 0.3994 10.3655C0.655131 10.0991 1.00198 9.94937 1.36364 9.94937H7.60909L13.8818 0.614143C14.0075 0.423566 14.1761 0.267959 14.3729 0.160909C14.5696 0.0538601 14.7885 -0.00137553 15.0104 2.60215e-05C15.2324 0.00142758 15.4506 0.0594236 15.6461 0.16895C15.8416 0.278476 16.0083 0.436201 16.1318 0.628352L22.3909 9.94937H28.6364C28.998 9.94937 29.3449 10.0991 29.6006 10.3655C29.8563 10.632 30 10.9934 30 11.3703L29.9455 11.7823L26.3045 25.437C25.8545 26.3606 24.9273 27 23.8636 27H6.13636ZM15 3.89639L10.9091 9.94937H19.0909L15 3.89639ZM15 15.6329C14.2767 15.6329 13.583 15.9323 13.0715 16.4652C12.5601 16.9982 12.2727 17.721 12.2727 18.4747C12.2727 19.2284 12.5601 19.9512 13.0715 20.4841C13.583 21.0171 14.2767 21.3165 15 21.3165C15.7233 21.3165 16.417 21.0171 16.9285 20.4841C17.4399 19.9512 17.7273 19.2284 17.7273 18.4747C17.7273 17.721 17.4399 16.9982 16.9285 16.4652C16.417 15.9323 15.7233 15.6329 15 15.6329Z" fill="white"/>
</svg>
