<svg width="20" height="21" viewBox="0 0 20 21" fill="none" xmlns="http://www.w3.org/2000/svg">
<path d="M10.0059 1.80184C12.6793 1.80184 12.9959 1.81356 14.0473 1.86046C15.0244 1.90346 15.5521 2.06762 15.9038 2.20442C16.369 2.38421 16.7051 2.60309 17.053 2.95095C17.4047 3.30272 17.6197 3.63494 17.7995 4.10006C17.9363 4.45183 18.1004 4.98339 18.1434 5.95661C18.1903 7.01192 18.2021 7.32851 18.2021 9.99804C18.2021 12.6715 18.1903 12.9881 18.1434 14.0395C18.1004 15.0166 17.9363 15.5443 17.7995 15.896C17.6197 16.3611 17.4008 16.6973 17.053 17.0451C16.7012 17.3969 16.369 17.6119 15.9038 17.7917C15.5521 17.9285 15.0205 18.0926 14.0473 18.1356C12.992 18.1825 12.6754 18.1943 10.0059 18.1943C7.33242 18.1943 7.01583 18.1825 5.96443 18.1356C4.9873 18.0926 4.45964 17.9285 4.10788 17.7917C3.64276 17.6119 3.30662 17.393 2.95876 17.0451C2.607 16.6934 2.39203 16.3611 2.21223 15.896C2.07543 15.5443 1.91128 15.0127 1.86828 14.0395C1.82138 12.9842 1.80965 12.6676 1.80965 9.99804C1.80965 7.3246 1.82138 7.00801 1.86828 5.95661C1.91128 4.97948 2.07543 4.45183 2.21223 4.10006C2.39203 3.63494 2.6109 3.29881 2.95876 2.95095C3.31053 2.59918 3.64276 2.38421 4.10788 2.20442C4.45964 2.06762 4.99121 1.90346 5.96443 1.86046C7.01583 1.81356 7.33242 1.80184 10.0059 1.80184ZM10.0059 0C7.28943 0 6.94938 0.0117256 5.88235 0.0586281C4.81923 0.105531 4.08833 0.277506 3.45515 0.523744C2.79461 0.781708 2.23569 1.12175 1.68067 1.68067C1.12175 2.23568 0.781708 2.79461 0.523744 3.45124C0.277506 4.08833 0.105531 4.81532 0.0586281 5.87844C0.0117256 6.94938 0 7.28943 0 10.0059C0 12.7223 0.0117256 13.0623 0.0586281 14.1294C0.105531 15.1925 0.277506 15.9234 0.523744 16.5566C0.781708 17.2171 1.12175 17.776 1.68067 18.3311C2.23569 18.8861 2.79461 19.23 3.45124 19.4841C4.08833 19.7303 4.81532 19.9023 5.87844 19.9492C6.94548 19.9961 7.28552 20.0078 10.002 20.0078C12.7184 20.0078 13.0584 19.9961 14.1255 19.9492C15.1886 19.9023 15.9195 19.7303 16.5527 19.4841C17.2093 19.23 17.7682 18.8861 18.3232 18.3311C18.8782 17.776 19.2222 17.2171 19.4763 16.5605C19.7225 15.9234 19.8945 15.1964 19.9414 14.1333C19.9883 13.0662 20 12.7262 20 10.0098C20 7.29334 19.9883 6.95329 19.9414 5.88626C19.8945 4.82314 19.7225 4.09224 19.4763 3.45906C19.23 2.79461 18.89 2.23568 18.3311 1.68067C17.776 1.12566 17.2171 0.781708 16.5605 0.527653C15.9234 0.281415 15.1964 0.109439 14.1333 0.0625366C13.0623 0.0117256 12.7223 0 10.0059 0Z" fill="white"/>
<path d="M10.0058 4.86609C7.16822 4.86609 4.86609 7.16822 4.86609 10.0058C4.86609 12.8434 7.16822 15.1455 10.0058 15.1455C12.8434 15.1455 15.1455 12.8434 15.1455 10.0058C15.1455 7.16822 12.8434 4.86609 10.0058 4.86609ZM10.0058 13.3398C8.1649 13.3398 6.67183 11.8467 6.67183 10.0058C6.67183 8.1649 8.1649 6.67183 10.0058 6.67183C11.8467 6.67183 13.3398 8.1649 13.3398 10.0058C13.3398 11.8467 11.8467 13.3398 10.0058 13.3398Z" fill="white"/>
<path d="M16.5488 4.66281C16.5488 5.32727 16.0094 5.86274 15.3488 5.86274C14.6844 5.86274 14.1489 5.32336 14.1489 4.66281C14.1489 3.99836 14.6883 3.46289 15.3488 3.46289C16.0094 3.46289 16.5488 4.00227 16.5488 4.66281Z" fill="white"/>
</svg>
