<svg width="96" height="36" viewBox="0 0 96 36" fill="none" xmlns="http://www.w3.org/2000/svg">
<path d="M28.7255 11.5862H34.5848V24.4221H42.4304V28.9655H28.7255V11.5862ZM58.4985 24.5462V28.9655H44.0488V11.5862H58.1757V16.0055H49.8088V18.0414H57.1578V22.2621H49.8088V24.5462H58.4985ZM72.5969 25.9365H65.9927L64.8258 28.9655H58.8672L66.4644 11.5862H72.2244L79.8217 28.9655H73.7637L72.5969 25.9365ZM70.9831 21.7159L69.2948 17.3462L67.6065 21.7159H70.9831ZM86.6161 16.0055V18.9848H93.8658V23.4041H86.6161V28.9655H80.7568V11.5862H94.8837V16.0055H86.6161Z" fill="#312F30"/>
<path d="M20.9116 27.8538C20.766 27.1734 20.7117 26.4766 20.7499 25.7819C20.8065 24.691 20.6441 23.5998 20.2725 22.5726C19.9007 21.5454 19.3272 20.603 18.5857 19.8009C17.9367 19.1005 17.1698 18.5195 16.3199 18.0843C16.9408 18.397 17.4207 18.9328 17.6632 19.5844C17.9058 20.2359 17.8932 20.9551 17.6279 21.5977C17.1006 23.0128 16.9772 24.5466 17.2713 26.0278C17.5655 27.509 18.2657 28.8793 19.2936 29.9855C20.4693 31.25 22.0146 32.1107 23.7087 32.4444C22.2809 31.2773 21.2941 29.6579 20.9116 27.8538Z" fill="#312F30"/>
<path d="M13.7477 16.7054C13.4655 17.6184 13.3448 18.5736 13.391 19.5282C13.3556 18.834 13.5816 18.1518 14.0245 17.616C14.4673 17.0803 15.0949 16.7299 15.7833 16.6341C17.2734 16.3822 18.6642 15.7215 19.8011 14.7258C20.9378 13.7301 21.7759 12.4384 22.2219 10.9945C22.7329 9.34322 22.7058 7.5723 22.1447 5.93736C21.8394 7.76404 20.9196 9.43181 19.5374 10.6646C19.013 11.1285 18.4296 11.5212 17.8024 11.8324C16.829 12.3282 15.9649 13.0141 15.2611 13.8496C14.5573 14.6851 14.0282 15.6531 13.705 16.6966L13.7477 16.7054Z" fill="#312F30"/>
<path d="M16.1413 21.3336C15.56 21.7154 14.8558 21.8634 14.17 21.7478C13.4841 21.6322 12.8674 21.2616 12.4433 20.7103C11.4818 19.5421 10.2145 18.6643 8.78283 18.1749C7.35116 17.6855 5.81162 17.604 4.33626 17.9392C2.6514 18.3261 1.13294 19.2381 -4.17233e-05 20.5438C1.73477 19.8945 3.63917 19.8563 5.39858 20.4356C6.05827 20.6555 6.68799 20.9567 7.27317 21.3322C8.18847 21.9259 9.21338 22.3301 10.2874 22.5211C11.3615 22.7121 12.4629 22.6861 13.5267 22.4444C14.4587 22.2313 15.3462 21.8569 16.1492 21.3381L16.1413 21.3336Z" fill="#312F30"/>
</svg>
