<svg width="20" height="12" viewBox="0 0 20 12" fill="none" xmlns="http://www.w3.org/2000/svg">
<path fill-rule="evenodd" clip-rule="evenodd" d="M2.93775 0H0.750191C0.125032 0 0 0.294075 0 0.619158C0 1.1983 0.741188 4.07303 3.45388 7.874C5.26134 10.4707 7.80899 11.878 10.1266 11.878C11.5179 11.878 11.69 11.5649 11.69 11.0278V9.0653C11.69 8.44014 11.822 8.31511 12.2621 8.31511C12.5872 8.31511 13.1423 8.47715 14.4417 9.72847C15.925 11.2128 16.1691 11.878 17.0033 11.878H19.1919C19.817 11.878 20.1301 11.5649 19.9491 10.9478C19.752 10.3336 19.0438 9.4414 18.1036 8.38413C17.5935 7.78198 16.8293 7.13281 16.5972 6.80773C16.2721 6.39062 16.3652 6.20558 16.5972 5.83448C16.5972 5.83448 19.2629 2.07953 19.541 0.804204C19.681 0.341087 19.541 0 18.8788 0H16.6912C16.1351 0 15.878 0.294075 15.739 0.619158C15.739 0.619158 14.6267 3.33085 13.0503 5.09229C12.5402 5.60242 12.3081 5.76546 12.0301 5.76546C11.891 5.76546 11.69 5.60242 11.69 5.13931V0.804204C11.69 0.248063 11.5289 0 11.0648 0H7.62594C7.27885 0 7.0698 0.258066 7.0698 0.503128C7.0698 1.03026 7.858 1.15229 7.93902 2.63567V5.85749C7.93902 6.56467 7.81199 6.6927 7.53291 6.6927C6.79173 6.6927 4.98727 3.96801 3.917 0.851216C3.70694 0.245062 3.49689 0 2.93775 0Z" fill="white"/>
</svg>
